<svg xmlns="http://www.w3.org/2000/svg" height="24" viewBox="0 -960 960 960" width="24"><path d="M480.206-25q-84.201 0-158.679-32.1-74.478-32.1-129.568-87.046-55.09-54.947-87.025-128.9Q73-347 73-431h136q0 112.986 78.798 191.493Q366.596-161 480-161q112.986 0 191.493-78.798Q750-318.596 750-432q0-112.986-78.798-191.493Q592.404-702 479-702h-5l54 53-74 77-198-198 198-197 74 77-53 52h4q84.115 0 158.311 32.017 74.195 32.016 129.926 87.246 55.73 55.231 87.746 129.128Q887-515.712 887-431.94q0 83.773-32.017 158.11-32.016 74.336-87.246 129.567-55.231 55.23-129.361 87.246Q564.246-25 480.206-25Z"/></svg>